G75*
G70*
%OFA0B0*%
%FSLAX24Y24*%
%IPPOS*%
%LPD*%
%AMOC8*
5,1,8,0,0,1.08239X$1,22.5*
%
%ADD10R,0.0460X0.0200*%
%ADD11R,0.0420X0.0200*%
%ADD12C,0.0060*%
%ADD13R,0.0356X0.0434*%
%ADD14R,0.0434X0.0356*%
%ADD15R,0.0257X0.0257*%
%ADD16R,0.0237X0.0257*%
%ADD17R,0.0250X0.0640*%
%ADD18R,0.0295X0.0138*%
%ADD19R,0.0138X0.0295*%
%ADD20R,0.1043X0.1043*%
%ADD21R,0.0631X0.0218*%
%ADD22R,0.0828X0.0789*%
%ADD23R,0.0828X0.0828*%
%ADD24R,0.0277X0.0671*%
D10*
X029061Y012064D03*
D11*
X029041Y011864D03*
X029521Y011864D03*
X029521Y012064D03*
X029521Y011664D03*
X029041Y011664D03*
D12*
X028851Y011584D02*
X029241Y011584D01*
X029241Y011754D01*
X028851Y011754D01*
X028851Y011584D01*
X028851Y011774D02*
X029241Y011774D01*
X029241Y011954D01*
X028851Y011954D01*
X028851Y011774D01*
X029321Y011774D02*
X029321Y011954D01*
X029711Y011954D01*
X029711Y011774D01*
X029321Y011774D01*
X029321Y011754D02*
X029711Y011754D01*
X029711Y011584D01*
X029321Y011584D01*
X029321Y011754D01*
X029321Y011974D02*
X029711Y011974D01*
X029711Y012144D01*
X029321Y012144D01*
X029321Y011974D01*
X029241Y011974D02*
X029241Y012144D01*
X028851Y012144D01*
X028851Y011974D01*
X029241Y011974D01*
D13*
X030261Y011970D03*
X030773Y011970D03*
X030781Y011222D03*
X030269Y011222D03*
X027682Y010868D03*
X027171Y010868D03*
X027147Y010246D03*
X027659Y010246D03*
X031852Y008632D03*
X032364Y008632D03*
X033245Y008616D03*
X033757Y008616D03*
X033761Y009077D03*
X033249Y009077D03*
X031820Y006238D03*
X031308Y006238D03*
X031312Y005750D03*
X031824Y005750D03*
X027560Y005986D03*
X027049Y005986D03*
D14*
X030950Y007423D03*
X031478Y007427D03*
X032100Y007427D03*
X032100Y007939D03*
X031478Y007939D03*
X030950Y007935D03*
X029509Y009195D03*
X029017Y009195D03*
X028541Y009195D03*
X028541Y009707D03*
X029017Y009707D03*
X029509Y009707D03*
D15*
X029279Y010161D03*
X029279Y010496D03*
X028747Y010496D03*
X028747Y010161D03*
D16*
X029013Y010161D03*
X029013Y010496D03*
D17*
X033050Y007673D03*
X033300Y007673D03*
X033560Y007673D03*
X033810Y007673D03*
X033810Y005953D03*
X033560Y005953D03*
X033300Y005953D03*
X033050Y005953D03*
D18*
X029714Y006577D03*
X029714Y006773D03*
X029714Y006970D03*
X029714Y007167D03*
X029714Y007364D03*
X028257Y007364D03*
X028257Y007167D03*
X028257Y006970D03*
X028257Y006773D03*
X028257Y006577D03*
D19*
X028592Y006242D03*
X028789Y006242D03*
X028986Y006242D03*
X029182Y006242D03*
X029379Y006242D03*
X029379Y007699D03*
X029182Y007699D03*
X028986Y007699D03*
X028789Y007699D03*
X028592Y007699D03*
D20*
X028986Y006970D03*
D21*
X025112Y006978D03*
X025112Y006722D03*
X025112Y006466D03*
X025112Y007234D03*
X025112Y007490D03*
D22*
X024068Y005403D03*
X024068Y008553D03*
D23*
X024068Y007478D03*
X024068Y006478D03*
D24*
X034572Y005474D03*
X034257Y013545D03*
M02*
