G75*
G70*
%OFA0B0*%
%FSLAX24Y24*%
%IPPOS*%
%LPD*%
%AMOC8*
5,1,8,0,0,1.08239X$1,22.5*
%
%ADD10C,0.0050*%
%ADD11C,0.0060*%
D10*
X025080Y008389D02*
X025080Y009289D01*
X023080Y009289D01*
X023080Y011289D01*
X025080Y011289D01*
X025080Y014089D01*
X026780Y014089D01*
X027780Y012889D01*
X030280Y012889D01*
X031180Y014089D01*
X033080Y014089D01*
X033080Y011289D01*
X035080Y011289D01*
X035080Y009289D01*
X033080Y009289D01*
X033080Y008489D01*
X030980Y006289D01*
X027080Y006289D01*
X025080Y008389D01*
X023719Y010389D02*
X023721Y010427D01*
X023727Y010464D01*
X023737Y010501D01*
X023750Y010536D01*
X023767Y010569D01*
X023788Y010601D01*
X023812Y010631D01*
X023838Y010657D01*
X023868Y010681D01*
X023899Y010702D01*
X023933Y010719D01*
X023968Y010732D01*
X024005Y010742D01*
X024042Y010748D01*
X024080Y010750D01*
X024118Y010748D01*
X024155Y010742D01*
X024192Y010732D01*
X024227Y010719D01*
X024260Y010702D01*
X024292Y010681D01*
X024322Y010657D01*
X024348Y010631D01*
X024372Y010601D01*
X024393Y010570D01*
X024410Y010536D01*
X024423Y010501D01*
X024433Y010464D01*
X024439Y010427D01*
X024441Y010389D01*
X024439Y010351D01*
X024433Y010314D01*
X024423Y010277D01*
X024410Y010242D01*
X024393Y010209D01*
X024372Y010177D01*
X024348Y010147D01*
X024322Y010121D01*
X024292Y010097D01*
X024261Y010076D01*
X024227Y010059D01*
X024192Y010046D01*
X024155Y010036D01*
X024118Y010030D01*
X024080Y010028D01*
X024042Y010030D01*
X024005Y010036D01*
X023968Y010046D01*
X023933Y010059D01*
X023900Y010076D01*
X023868Y010097D01*
X023838Y010121D01*
X023812Y010147D01*
X023788Y010177D01*
X023767Y010208D01*
X023750Y010242D01*
X023737Y010277D01*
X023727Y010314D01*
X023721Y010351D01*
X023719Y010389D01*
X033819Y010289D02*
X033821Y010327D01*
X033827Y010364D01*
X033837Y010401D01*
X033850Y010436D01*
X033867Y010469D01*
X033888Y010501D01*
X033912Y010531D01*
X033938Y010557D01*
X033968Y010581D01*
X033999Y010602D01*
X034033Y010619D01*
X034068Y010632D01*
X034105Y010642D01*
X034142Y010648D01*
X034180Y010650D01*
X034218Y010648D01*
X034255Y010642D01*
X034292Y010632D01*
X034327Y010619D01*
X034360Y010602D01*
X034392Y010581D01*
X034422Y010557D01*
X034448Y010531D01*
X034472Y010501D01*
X034493Y010470D01*
X034510Y010436D01*
X034523Y010401D01*
X034533Y010364D01*
X034539Y010327D01*
X034541Y010289D01*
X034539Y010251D01*
X034533Y010214D01*
X034523Y010177D01*
X034510Y010142D01*
X034493Y010109D01*
X034472Y010077D01*
X034448Y010047D01*
X034422Y010021D01*
X034392Y009997D01*
X034361Y009976D01*
X034327Y009959D01*
X034292Y009946D01*
X034255Y009936D01*
X034218Y009930D01*
X034180Y009928D01*
X034142Y009930D01*
X034105Y009936D01*
X034068Y009946D01*
X034033Y009959D01*
X034000Y009976D01*
X033968Y009997D01*
X033938Y010021D01*
X033912Y010047D01*
X033888Y010077D01*
X033867Y010108D01*
X033850Y010142D01*
X033837Y010177D01*
X033827Y010214D01*
X033821Y010251D01*
X033819Y010289D01*
D11*
X033554Y011423D02*
X033213Y011423D01*
X033213Y011593D01*
X033270Y011650D01*
X033327Y011650D01*
X033383Y011593D01*
X033383Y011423D01*
X033383Y011593D02*
X033440Y011650D01*
X033497Y011650D01*
X033554Y011593D01*
X033554Y011423D01*
X033440Y011791D02*
X033554Y011905D01*
X033440Y012018D01*
X033213Y012018D01*
X033383Y012018D02*
X033383Y011791D01*
X033440Y011791D02*
X033213Y011791D01*
X033554Y012160D02*
X033554Y012387D01*
X033554Y012273D02*
X033213Y012273D01*
X033554Y012528D02*
X033554Y012755D01*
X033554Y012642D02*
X033213Y012642D01*
M02*
