G75*
G70*
%OFA0B0*%
%FSLAX24Y24*%
%IPPOS*%
%LPD*%
%AMOC8*
5,1,8,0,0,1.08239X$1,22.5*
%
%ADD10R,0.1680X0.1680*%
%ADD11R,0.2080X0.2080*%
%ADD12C,0.0050*%
D10*
X029080Y010289D03*
D11*
X024080Y010289D03*
X034080Y010289D03*
D12*
X025888Y008752D02*
X025736Y009119D01*
X025626Y009501D01*
X025559Y009893D01*
X025537Y010289D01*
X025559Y010686D01*
X025626Y011078D01*
X025736Y011460D01*
X025888Y011827D01*
X026080Y012174D01*
X026310Y012498D01*
X031851Y012498D01*
X031850Y012498D02*
X031586Y012795D01*
X031289Y013060D01*
X030965Y013289D01*
X030617Y013482D01*
X030250Y013634D01*
X029869Y013744D01*
X029477Y013810D01*
X029080Y013833D01*
X028683Y013810D01*
X028292Y013744D01*
X027910Y013634D01*
X027543Y013482D01*
X027195Y013289D01*
X026871Y013060D01*
X026575Y012795D01*
X026310Y012498D01*
X026275Y012450D02*
X031885Y012450D01*
X031850Y012498D02*
X032080Y012174D01*
X032273Y011827D01*
X032425Y011460D01*
X032535Y011078D01*
X032601Y010686D01*
X032623Y010289D01*
X032601Y009893D01*
X032535Y009501D01*
X032425Y009119D01*
X032273Y008752D01*
X032080Y008404D01*
X031850Y008080D01*
X031586Y007784D01*
X031289Y007519D01*
X030965Y007289D01*
X030617Y007097D01*
X030250Y006945D01*
X029869Y006835D01*
X029477Y006768D01*
X029080Y006746D01*
X028683Y006768D01*
X028292Y006835D01*
X027910Y006945D01*
X027543Y007097D01*
X027195Y007289D01*
X026871Y007519D01*
X026575Y007784D01*
X026310Y008080D01*
X026080Y008404D01*
X025888Y008752D01*
X025883Y008764D02*
X032277Y008764D01*
X032298Y008812D02*
X025863Y008812D01*
X025843Y008861D02*
X032318Y008861D01*
X032338Y008909D02*
X025822Y008909D01*
X025802Y008958D02*
X032358Y008958D01*
X032378Y009006D02*
X025782Y009006D01*
X025762Y009055D02*
X032398Y009055D01*
X032418Y009103D02*
X025742Y009103D01*
X025726Y009152D02*
X032434Y009152D01*
X032448Y009200D02*
X025712Y009200D01*
X025698Y009249D02*
X032462Y009249D01*
X032476Y009297D02*
X025684Y009297D01*
X025670Y009346D02*
X032490Y009346D01*
X032504Y009394D02*
X025656Y009394D01*
X025642Y009443D02*
X032518Y009443D01*
X032532Y009491D02*
X025628Y009491D01*
X025619Y009540D02*
X032541Y009540D01*
X032549Y009588D02*
X025611Y009588D01*
X025603Y009637D02*
X032558Y009637D01*
X032566Y009685D02*
X025594Y009685D01*
X025586Y009734D02*
X032574Y009734D01*
X032582Y009782D02*
X025578Y009782D01*
X025570Y009831D02*
X032591Y009831D01*
X032599Y009879D02*
X025561Y009879D01*
X025557Y009928D02*
X032603Y009928D01*
X032606Y009976D02*
X025554Y009976D01*
X025552Y010025D02*
X032609Y010025D01*
X032611Y010073D02*
X025549Y010073D01*
X025546Y010122D02*
X032614Y010122D01*
X032617Y010170D02*
X025543Y010170D01*
X025541Y010219D02*
X032619Y010219D01*
X032622Y010267D02*
X025538Y010267D01*
X025538Y010316D02*
X032622Y010316D01*
X032619Y010364D02*
X025541Y010364D01*
X025544Y010413D02*
X032616Y010413D01*
X032614Y010461D02*
X025546Y010461D01*
X025549Y010510D02*
X032611Y010510D01*
X032608Y010558D02*
X025552Y010558D01*
X025555Y010607D02*
X032606Y010607D01*
X032603Y010655D02*
X025557Y010655D01*
X025562Y010704D02*
X032598Y010704D01*
X032590Y010752D02*
X025570Y010752D01*
X025579Y010801D02*
X032582Y010801D01*
X032573Y010849D02*
X025587Y010849D01*
X025595Y010898D02*
X032565Y010898D01*
X032557Y010946D02*
X025603Y010946D01*
X025612Y010995D02*
X032549Y010995D01*
X032540Y011043D02*
X025620Y011043D01*
X025630Y011092D02*
X032531Y011092D01*
X032517Y011140D02*
X025644Y011140D01*
X025658Y011189D02*
X032503Y011189D01*
X032489Y011237D02*
X025672Y011237D01*
X025686Y011286D02*
X032475Y011286D01*
X032461Y011334D02*
X025700Y011334D01*
X025714Y011383D02*
X032447Y011383D01*
X032433Y011431D02*
X025727Y011431D01*
X025744Y011480D02*
X032416Y011480D01*
X032396Y011528D02*
X025764Y011528D01*
X025784Y011577D02*
X032376Y011577D01*
X032356Y011625D02*
X025804Y011625D01*
X025824Y011674D02*
X032336Y011674D01*
X032316Y011722D02*
X025844Y011722D01*
X025865Y011771D02*
X032296Y011771D01*
X032276Y011819D02*
X025885Y011819D01*
X025910Y011868D02*
X032250Y011868D01*
X032223Y011916D02*
X025937Y011916D01*
X025964Y011965D02*
X032196Y011965D01*
X032169Y012013D02*
X025991Y012013D01*
X026018Y012062D02*
X032143Y012062D01*
X032116Y012110D02*
X026044Y012110D01*
X026071Y012159D02*
X032089Y012159D01*
X032057Y012207D02*
X026103Y012207D01*
X026138Y012256D02*
X032023Y012256D01*
X031988Y012304D02*
X026172Y012304D01*
X026206Y012353D02*
X031954Y012353D01*
X031919Y012401D02*
X026241Y012401D01*
X026353Y012547D02*
X031807Y012547D01*
X031764Y012595D02*
X026396Y012595D01*
X026440Y012644D02*
X031721Y012644D01*
X031677Y012692D02*
X026483Y012692D01*
X026526Y012741D02*
X031634Y012741D01*
X031590Y012789D02*
X026570Y012789D01*
X026623Y012838D02*
X031537Y012838D01*
X031483Y012886D02*
X026677Y012886D01*
X026731Y012935D02*
X031429Y012935D01*
X031375Y012983D02*
X026786Y012983D01*
X026840Y013032D02*
X031320Y013032D01*
X031260Y013080D02*
X026900Y013080D01*
X026968Y013129D02*
X031192Y013129D01*
X031123Y013177D02*
X027037Y013177D01*
X027105Y013226D02*
X031055Y013226D01*
X030987Y013274D02*
X027174Y013274D01*
X027255Y013323D02*
X030905Y013323D01*
X030817Y013371D02*
X027343Y013371D01*
X027431Y013420D02*
X030729Y013420D01*
X030642Y013468D02*
X027519Y013468D01*
X027628Y013517D02*
X030533Y013517D01*
X030416Y013565D02*
X027745Y013565D01*
X027862Y013614D02*
X030299Y013614D01*
X030151Y013662D02*
X028009Y013662D01*
X028177Y013711D02*
X029983Y013711D01*
X029777Y013759D02*
X028383Y013759D01*
X028669Y013808D02*
X029492Y013808D01*
X032252Y008715D02*
X025908Y008715D01*
X025935Y008667D02*
X032225Y008667D01*
X032199Y008618D02*
X025962Y008618D01*
X025988Y008570D02*
X032172Y008570D01*
X032145Y008521D02*
X026015Y008521D01*
X026042Y008473D02*
X032118Y008473D01*
X032091Y008424D02*
X026069Y008424D01*
X026100Y008376D02*
X032060Y008376D01*
X032026Y008327D02*
X026134Y008327D01*
X026169Y008279D02*
X031991Y008279D01*
X031957Y008230D02*
X026203Y008230D01*
X026238Y008182D02*
X031923Y008182D01*
X031888Y008133D02*
X026272Y008133D01*
X026306Y008085D02*
X031854Y008085D01*
X031811Y008036D02*
X026349Y008036D01*
X026392Y007988D02*
X031768Y007988D01*
X031725Y007939D02*
X026436Y007939D01*
X026479Y007891D02*
X031681Y007891D01*
X031638Y007842D02*
X026522Y007842D01*
X026566Y007794D02*
X031595Y007794D01*
X031543Y007745D02*
X026618Y007745D01*
X026672Y007697D02*
X031488Y007697D01*
X031434Y007648D02*
X026726Y007648D01*
X026781Y007600D02*
X031380Y007600D01*
X031325Y007551D02*
X026835Y007551D01*
X026894Y007503D02*
X031266Y007503D01*
X031198Y007454D02*
X026962Y007454D01*
X027030Y007406D02*
X031130Y007406D01*
X031061Y007357D02*
X027099Y007357D01*
X027167Y007309D02*
X030993Y007309D01*
X030913Y007260D02*
X027247Y007260D01*
X027335Y007212D02*
X030825Y007212D01*
X030738Y007163D02*
X027423Y007163D01*
X027510Y007115D02*
X030650Y007115D01*
X030544Y007066D02*
X027617Y007066D01*
X027734Y007018D02*
X030427Y007018D01*
X030309Y006969D02*
X027851Y006969D01*
X027993Y006921D02*
X030167Y006921D01*
X029999Y006872D02*
X028162Y006872D01*
X028357Y006824D02*
X029804Y006824D01*
X029518Y006775D02*
X028642Y006775D01*
M02*
