%
M48
M72
T01C0.0236
T02C0.0240
%
T01
X24848Y5317
X26682Y6498
X27785Y6773
X25871Y7569
X25462Y7955
X27549Y7718
X28982Y8191
X29871Y8703
X30226Y9136
X30596Y9648
X32682Y9884
X30108Y7679
X30159Y6970
X31761Y6892
X33848Y6813
X30108Y6025
X25753Y10514
X23824Y11813
X27013Y12010
X23824Y13466
X32801Y13506
T02
X30226Y12876
X29399Y13585
X30619Y10514
X28060Y8939
X27273Y8545
X28139Y7758
X30950Y6840
X32470Y6183
X32352Y5435
X33179Y6970
X27273Y6577
M30
