G75*
G70*
%OFA0B0*%
%FSLAX24Y24*%
%IPPOS*%
%LPD*%
%AMOC8*
5,1,8,0,0,1.08239X$1,22.5*
%
%ADD10C,0.0020*%
%ADD11C,0.0050*%
%ADD12C,0.0040*%
%ADD13C,0.0139*%
%ADD14C,0.0080*%
D10*
X025606Y006665D02*
X025606Y006805D01*
X025653Y006759D01*
X025699Y006805D01*
X025699Y006665D01*
X025753Y006689D02*
X025777Y006665D01*
X025823Y006665D01*
X025847Y006689D01*
X025847Y006782D01*
X025823Y006805D01*
X025777Y006805D01*
X025753Y006782D01*
X025753Y006689D01*
X025900Y006689D02*
X025924Y006665D01*
X025971Y006665D01*
X025994Y006689D01*
X025994Y006712D01*
X025971Y006735D01*
X025924Y006735D01*
X025900Y006759D01*
X025900Y006782D01*
X025924Y006805D01*
X025971Y006805D01*
X025994Y006782D01*
X026048Y006805D02*
X026095Y006805D01*
X026071Y006805D02*
X026071Y006665D01*
X026048Y006665D02*
X026095Y006665D01*
X025994Y006941D02*
X025924Y007011D01*
X025900Y006988D02*
X025994Y007081D01*
X025900Y007081D02*
X025900Y006941D01*
X025847Y006964D02*
X025823Y006941D01*
X025777Y006941D01*
X025753Y006964D01*
X025753Y007058D01*
X025777Y007081D01*
X025823Y007081D01*
X025847Y007058D01*
X025875Y007177D02*
X025851Y007201D01*
X025875Y007177D02*
X025921Y007177D01*
X025945Y007201D01*
X025945Y007224D01*
X025921Y007247D01*
X025875Y007247D01*
X025851Y007271D01*
X025851Y007294D01*
X025875Y007317D01*
X025921Y007317D01*
X025945Y007294D01*
X025999Y007294D02*
X025999Y007201D01*
X026022Y007177D01*
X026069Y007177D01*
X026092Y007201D01*
X026092Y007294D01*
X026069Y007317D01*
X026022Y007317D01*
X025999Y007294D01*
X025800Y007317D02*
X025753Y007317D01*
X025777Y007317D02*
X025777Y007177D01*
X025800Y007177D02*
X025753Y007177D01*
X025699Y007177D02*
X025699Y007317D01*
X025653Y007271D01*
X025606Y007317D01*
X025606Y007177D01*
X025629Y007081D02*
X025606Y007058D01*
X025606Y007034D01*
X025629Y007011D01*
X025676Y007011D01*
X025699Y006988D01*
X025699Y006964D01*
X025676Y006941D01*
X025629Y006941D01*
X025606Y006964D01*
X025629Y007081D02*
X025676Y007081D01*
X025699Y007058D01*
X025699Y007965D02*
X025653Y008011D01*
X025676Y008011D02*
X025606Y008011D01*
X025606Y007965D02*
X025606Y008105D01*
X025676Y008105D01*
X025699Y008081D01*
X025699Y008035D01*
X025676Y008011D01*
X025753Y007988D02*
X025777Y007965D01*
X025823Y007965D01*
X025847Y007988D01*
X025847Y008011D01*
X025823Y008035D01*
X025777Y008035D01*
X025753Y008058D01*
X025753Y008081D01*
X025777Y008105D01*
X025823Y008105D01*
X025847Y008081D01*
X025900Y008105D02*
X025994Y008105D01*
X025947Y008105D02*
X025947Y007965D01*
X028359Y008870D02*
X028359Y008940D01*
X028382Y008964D01*
X028406Y008964D01*
X028429Y008940D01*
X028429Y008870D01*
X028499Y008870D02*
X028359Y008870D01*
X028429Y008940D02*
X028453Y008964D01*
X028476Y008964D01*
X028499Y008940D01*
X028499Y008870D01*
X028832Y008870D02*
X028832Y008940D01*
X028855Y008964D01*
X028902Y008964D01*
X028925Y008940D01*
X028925Y008870D01*
X028972Y008870D02*
X028832Y008870D01*
X028925Y008917D02*
X028972Y008964D01*
X029304Y008940D02*
X029304Y008893D01*
X029327Y008870D01*
X029421Y008870D01*
X029444Y008893D01*
X029444Y008940D01*
X029421Y008964D01*
X029374Y008964D01*
X029374Y008917D01*
X029327Y008964D02*
X029304Y008940D01*
D11*
X029446Y009994D02*
X028580Y009994D01*
X028580Y010663D01*
X029446Y010663D01*
X029446Y009994D01*
X028462Y010014D02*
X028464Y010022D01*
X028469Y010029D01*
X028476Y010033D01*
X028484Y010034D01*
X028492Y010031D01*
X028498Y010026D01*
X028502Y010018D01*
X028502Y010010D01*
X028498Y010002D01*
X028492Y009997D01*
X028484Y009994D01*
X028476Y009995D01*
X028469Y009999D01*
X028464Y010006D01*
X028462Y010014D01*
X032643Y008073D02*
X034218Y008073D01*
X034218Y005553D01*
X032643Y005553D01*
X032643Y005632D01*
X032643Y007994D01*
X032643Y008073D01*
X034375Y005868D02*
X034769Y005868D01*
X034769Y005081D01*
X034375Y005081D01*
X034375Y005868D01*
X034552Y005041D02*
X034554Y005049D01*
X034559Y005056D01*
X034566Y005060D01*
X034574Y005061D01*
X034582Y005058D01*
X034588Y005053D01*
X034592Y005045D01*
X034592Y005037D01*
X034588Y005029D01*
X034582Y005024D01*
X034574Y005021D01*
X034566Y005022D01*
X034559Y005026D01*
X034554Y005033D01*
X034552Y005041D01*
X034454Y013151D02*
X034060Y013151D01*
X034060Y013939D01*
X034454Y013939D01*
X034454Y013151D01*
X034237Y013978D02*
X034239Y013986D01*
X034244Y013993D01*
X034251Y013997D01*
X034259Y013998D01*
X034267Y013995D01*
X034273Y013990D01*
X034277Y013982D01*
X034277Y013974D01*
X034273Y013966D01*
X034267Y013961D01*
X034259Y013958D01*
X034251Y013959D01*
X034244Y013963D01*
X034239Y013970D01*
X034237Y013978D01*
D12*
X029753Y007738D02*
X029497Y007738D01*
X029753Y007738D02*
X029753Y007482D01*
X028474Y007738D02*
X028218Y007738D01*
X028218Y007482D01*
X028218Y006459D02*
X028218Y006203D01*
X028474Y006203D01*
X029497Y006203D02*
X029753Y006203D01*
X029753Y006459D01*
D13*
X029625Y006331D03*
D14*
X023497Y005640D02*
X023497Y008317D01*
X024560Y008317D02*
X025190Y008317D01*
X025190Y007844D01*
X024639Y007844D01*
X024639Y006112D01*
X025190Y006112D01*
X025190Y005640D01*
X024560Y005640D01*
M02*
