G75*
G70*
%OFA0B0*%
%FSLAX24Y24*%
%IPPOS*%
%LPD*%
%AMOC8*
5,1,8,0,0,1.08239X$1,22.5*
%
%ADD10C,0.0039*%
%ADD11C,0.0050*%
%ADD12R,0.0380X0.0120*%
%ADD13R,0.0340X0.0120*%
%ADD14R,0.0276X0.0354*%
%ADD15R,0.0354X0.0276*%
%ADD16R,0.0177X0.0177*%
%ADD17R,0.0157X0.0177*%
%ADD18R,0.0170X0.0560*%
%ADD19R,0.0276X0.0118*%
%ADD20R,0.0118X0.0276*%
%ADD21R,0.1024X0.1024*%
%ADD22R,0.0551X0.0138*%
%ADD23R,0.0748X0.0709*%
%ADD24R,0.0748X0.0748*%
%ADD25R,0.0197X0.0591*%
%ADD26C,0.0160*%
%ADD27C,0.0440*%
%ADD28C,0.0100*%
%ADD29C,0.0436*%
D10*
X022958Y004884D02*
X022958Y014136D01*
X035202Y014136D01*
X035202Y004884D01*
X022958Y004884D01*
D11*
X034814Y011956D02*
X034941Y012019D01*
X034814Y012083D01*
X034814Y012177D02*
X034751Y012240D01*
X034941Y012240D01*
X034941Y012177D02*
X034941Y012304D01*
X034941Y012398D02*
X034941Y012430D01*
X034909Y012430D01*
X034909Y012398D01*
X034941Y012398D01*
X034909Y012508D02*
X034782Y012508D01*
X034751Y012540D01*
X034751Y012604D01*
X034782Y012635D01*
X034909Y012508D01*
X034941Y012540D01*
X034941Y012604D01*
X034909Y012635D01*
X034782Y012635D01*
D12*
X029061Y012064D03*
D13*
X029041Y011864D03*
X029521Y011864D03*
X029521Y012064D03*
X029521Y011664D03*
X029041Y011664D03*
D14*
X030261Y011970D03*
X030773Y011970D03*
X030781Y011222D03*
X030269Y011222D03*
X027682Y010868D03*
X027171Y010868D03*
X027147Y010246D03*
X027659Y010246D03*
X031852Y008632D03*
X032364Y008632D03*
X033245Y008616D03*
X033757Y008616D03*
X033761Y009077D03*
X033249Y009077D03*
X031820Y006238D03*
X031308Y006238D03*
X031312Y005750D03*
X031824Y005750D03*
X027560Y005986D03*
X027049Y005986D03*
D15*
X030950Y007423D03*
X031478Y007427D03*
X032100Y007427D03*
X032100Y007939D03*
X031478Y007939D03*
X030950Y007935D03*
X029509Y009195D03*
X029017Y009195D03*
X028541Y009195D03*
X028541Y009707D03*
X029017Y009707D03*
X029509Y009707D03*
D16*
X029279Y010161D03*
X029279Y010496D03*
X028747Y010496D03*
X028747Y010161D03*
D17*
X029013Y010161D03*
X029013Y010496D03*
D18*
X033050Y007673D03*
X033300Y007673D03*
X033560Y007673D03*
X033810Y007673D03*
X033810Y005953D03*
X033560Y005953D03*
X033300Y005953D03*
X033050Y005953D03*
D19*
X029714Y006577D03*
X029714Y006773D03*
X029714Y006970D03*
X029714Y007167D03*
X029714Y007364D03*
X028257Y007364D03*
X028257Y007167D03*
X028257Y006970D03*
X028257Y006773D03*
X028257Y006577D03*
D20*
X028592Y006242D03*
X028789Y006242D03*
X028986Y006242D03*
X029182Y006242D03*
X029379Y006242D03*
X029379Y007699D03*
X029182Y007699D03*
X028986Y007699D03*
X028789Y007699D03*
X028592Y007699D03*
D21*
X028986Y006970D03*
D22*
X025112Y006978D03*
X025112Y006722D03*
X025112Y006466D03*
X025112Y007234D03*
X025112Y007490D03*
D23*
X024068Y008553D03*
X024068Y005403D03*
D24*
X024068Y006478D03*
X024068Y007478D03*
D25*
X034572Y005474D03*
X034257Y013545D03*
D26*
X033999Y013601D02*
X033170Y013601D01*
X033179Y013581D02*
X033121Y013720D01*
X033015Y013826D01*
X032876Y013884D01*
X032725Y013884D01*
X032586Y013826D01*
X032480Y013720D01*
X032422Y013581D01*
X032422Y013431D01*
X032480Y013292D01*
X032586Y013185D01*
X032725Y013128D01*
X032876Y013128D01*
X033015Y013185D01*
X033121Y013292D01*
X033179Y013431D01*
X033179Y013581D01*
X033179Y013443D02*
X033999Y013443D01*
X033999Y013284D02*
X033114Y013284D01*
X032487Y013284D02*
X024158Y013284D01*
X024145Y013252D02*
X024202Y013391D01*
X024202Y013542D01*
X024145Y013681D01*
X024038Y013787D01*
X023899Y013845D01*
X023749Y013845D01*
X023610Y013787D01*
X023504Y013681D01*
X023446Y013542D01*
X023446Y013391D01*
X023504Y013252D01*
X023610Y013146D01*
X023749Y013088D01*
X023899Y013088D01*
X024038Y013146D01*
X024145Y013252D01*
X023990Y013126D02*
X029938Y013126D01*
X029904Y013091D02*
X029846Y012951D01*
X029846Y012800D01*
X029904Y012661D01*
X030011Y012554D01*
X030016Y012552D01*
X030016Y012298D01*
X029469Y012298D01*
X029415Y012314D01*
X029385Y012298D01*
X029066Y012298D01*
X029001Y012311D01*
X028981Y012298D01*
X028958Y012298D01*
X028943Y012284D01*
X028805Y012284D01*
X028711Y012190D01*
X028711Y012007D01*
X028703Y011994D01*
X028691Y011948D01*
X028691Y011873D01*
X028052Y011873D01*
X027472Y011294D01*
X027472Y011199D01*
X027427Y011153D01*
X027375Y011205D01*
X026967Y011205D01*
X026873Y011111D01*
X026873Y011001D01*
X026866Y010994D01*
X026866Y010949D01*
X026849Y010908D01*
X026866Y010866D01*
X026866Y010506D01*
X026849Y010489D01*
X026849Y010002D01*
X026943Y009909D01*
X027023Y009909D01*
X027049Y009894D01*
X027063Y009898D01*
X027063Y008869D01*
X027058Y008867D01*
X026951Y008760D01*
X026893Y008621D01*
X026893Y008470D01*
X026951Y008330D01*
X026959Y008322D01*
X026414Y008322D01*
X026055Y007963D01*
X026039Y007947D01*
X026039Y007908D01*
X025947Y007947D01*
X025840Y007947D01*
X025840Y008030D01*
X025783Y008169D01*
X025676Y008275D01*
X025537Y008333D01*
X025387Y008333D01*
X025248Y008275D01*
X025141Y008169D01*
X025084Y008030D01*
X025084Y007879D01*
X025119Y007794D01*
X025044Y007719D01*
X024770Y007719D01*
X024676Y007625D01*
X024676Y006618D01*
X024668Y006605D01*
X024656Y006559D01*
X024656Y006466D01*
X024656Y006374D01*
X024668Y006328D01*
X024692Y006287D01*
X024725Y006253D01*
X024767Y006230D01*
X024812Y006218D01*
X025112Y006218D01*
X025411Y006218D01*
X025457Y006230D01*
X025498Y006253D01*
X025531Y006287D01*
X025555Y006328D01*
X025567Y006374D01*
X025567Y006466D01*
X025112Y006466D01*
X025112Y006466D01*
X025112Y006218D01*
X025112Y006466D01*
X025112Y006466D01*
X025567Y006466D01*
X025567Y006512D01*
X026258Y006512D01*
X026271Y006502D01*
X026304Y006507D01*
X026304Y006423D01*
X026362Y006284D01*
X026468Y006177D01*
X026607Y006120D01*
X026731Y006120D01*
X026731Y005986D01*
X026731Y005785D01*
X026743Y005739D01*
X026767Y005698D01*
X026800Y005665D01*
X026841Y005641D01*
X026887Y005629D01*
X027049Y005629D01*
X027210Y005629D01*
X027256Y005641D01*
X027297Y005665D01*
X027319Y005687D01*
X027356Y005649D01*
X027764Y005649D01*
X027858Y005743D01*
X027858Y005987D01*
X028229Y006358D01*
X028324Y006358D01*
X028330Y006348D01*
X028363Y006314D01*
X028373Y006309D01*
X028373Y006038D01*
X028467Y005944D01*
X029505Y005944D01*
X029598Y006038D01*
X029598Y006309D01*
X029608Y006314D01*
X029641Y006348D01*
X029647Y006358D01*
X029849Y006358D01*
X029874Y006332D01*
X029877Y006329D01*
X029787Y006240D01*
X029730Y006101D01*
X029730Y005950D01*
X029787Y005811D01*
X029893Y005705D01*
X030032Y005647D01*
X030183Y005647D01*
X030322Y005705D01*
X030428Y005811D01*
X030486Y005950D01*
X030486Y005973D01*
X031015Y005973D01*
X031015Y005506D01*
X031108Y005413D01*
X031516Y005413D01*
X031554Y005450D01*
X031576Y005429D01*
X031617Y005405D01*
X031663Y005393D01*
X031824Y005393D01*
X031824Y005750D01*
X031824Y005750D01*
X031824Y005393D01*
X031972Y005393D01*
X031972Y005359D01*
X024602Y005359D01*
X024602Y005201D02*
X032049Y005201D01*
X032030Y005220D02*
X032137Y005113D01*
X032207Y005083D01*
X024602Y005083D01*
X024602Y005824D01*
X024509Y005918D01*
X023628Y005918D01*
X023534Y005824D01*
X023534Y005083D01*
X023158Y005083D01*
X023158Y013936D01*
X034028Y013936D01*
X033999Y013907D01*
X033999Y013184D01*
X034047Y013135D01*
X034047Y009332D01*
X033965Y009414D01*
X033557Y009414D01*
X033519Y009376D01*
X033498Y009398D01*
X033457Y009422D01*
X033411Y009434D01*
X033249Y009434D01*
X033088Y009434D01*
X033042Y009422D01*
X033001Y009398D01*
X032968Y009364D01*
X032944Y009323D01*
X032932Y009278D01*
X032932Y009077D01*
X033249Y009077D01*
X033249Y009434D01*
X033249Y009077D01*
X033249Y009077D01*
X033249Y009077D01*
X032932Y009077D01*
X032932Y008876D01*
X032938Y008854D01*
X032928Y008817D01*
X032928Y008616D01*
X032928Y008440D01*
X032681Y008440D01*
X032681Y008632D01*
X032681Y008833D01*
X032669Y008878D01*
X032645Y008919D01*
X032612Y008953D01*
X032571Y008977D01*
X032525Y008989D01*
X032364Y008989D01*
X032364Y008632D01*
X032681Y008632D01*
X032364Y008632D01*
X032364Y008632D01*
X032364Y008632D01*
X032364Y008989D01*
X032202Y008989D01*
X032156Y008977D01*
X032115Y008953D01*
X032094Y008931D01*
X032056Y008969D01*
X031687Y008969D01*
X031684Y010160D01*
X031684Y010246D01*
X031684Y010247D01*
X031622Y010308D01*
X031561Y010369D01*
X031560Y010369D01*
X031560Y010370D01*
X031474Y010369D01*
X030273Y010369D01*
X030042Y010601D01*
X030042Y010820D01*
X030107Y010885D01*
X030473Y010885D01*
X030511Y010923D01*
X030533Y010901D01*
X030574Y010877D01*
X030619Y010865D01*
X030781Y010865D01*
X030942Y010865D01*
X030988Y010877D01*
X031029Y010901D01*
X031063Y010935D01*
X031086Y010976D01*
X031099Y011021D01*
X031099Y011222D01*
X030781Y011222D01*
X030781Y010865D01*
X030781Y011222D01*
X030781Y011222D01*
X030781Y011222D01*
X031099Y011222D01*
X031099Y011423D01*
X031086Y011469D01*
X031063Y011510D01*
X031029Y011544D01*
X030988Y011567D01*
X030942Y011579D01*
X030781Y011579D01*
X030781Y011222D01*
X030781Y011222D01*
X030781Y011579D01*
X030619Y011579D01*
X030574Y011567D01*
X030533Y011544D01*
X030511Y011522D01*
X030473Y011559D01*
X030065Y011559D01*
X029971Y011466D01*
X029971Y011344D01*
X029745Y011117D01*
X027974Y011117D01*
X027932Y011159D01*
X028226Y011453D01*
X028795Y011453D01*
X028805Y011444D01*
X029268Y011444D01*
X029281Y011436D01*
X029327Y011424D01*
X029521Y011424D01*
X029715Y011424D01*
X029760Y011436D01*
X029801Y011460D01*
X029835Y011494D01*
X029859Y011535D01*
X029871Y011580D01*
X029871Y011664D01*
X029805Y011664D01*
X029805Y011664D01*
X029871Y011664D01*
X029871Y011748D01*
X029867Y011764D01*
X029871Y011780D01*
X029871Y011864D01*
X029805Y011864D01*
X029871Y011864D01*
X029871Y011878D01*
X029963Y011878D01*
X029963Y011727D01*
X030057Y011633D01*
X030465Y011633D01*
X030503Y011671D01*
X030525Y011649D01*
X030566Y011625D01*
X030612Y011613D01*
X030773Y011613D01*
X030935Y011613D01*
X030980Y011625D01*
X031021Y011649D01*
X031055Y011683D01*
X031079Y011724D01*
X031091Y011769D01*
X031091Y011970D01*
X030773Y011970D01*
X030773Y011613D01*
X030773Y011970D01*
X030773Y011970D01*
X030773Y011970D01*
X031091Y011970D01*
X031091Y012171D01*
X031079Y012217D01*
X031055Y012258D01*
X031021Y012292D01*
X030980Y012315D01*
X030935Y012328D01*
X030773Y012328D01*
X030612Y012328D01*
X030566Y012315D01*
X030525Y012292D01*
X030503Y012270D01*
X030465Y012308D01*
X030436Y012308D01*
X030436Y012552D01*
X030441Y012554D01*
X030548Y012661D01*
X030606Y012800D01*
X030606Y012951D01*
X030548Y013091D01*
X030441Y013198D01*
X030301Y013256D01*
X030150Y013256D01*
X030011Y013198D01*
X029904Y013091D01*
X029852Y012967D02*
X023158Y012967D01*
X023158Y012809D02*
X029846Y012809D01*
X029914Y012650D02*
X023158Y012650D01*
X023158Y012492D02*
X030016Y012492D01*
X030016Y012333D02*
X027220Y012333D01*
X027227Y012330D02*
X027088Y012388D01*
X026938Y012388D01*
X026799Y012330D01*
X026693Y012224D01*
X026635Y012085D01*
X026635Y011934D01*
X026693Y011796D01*
X026799Y011689D01*
X026938Y011632D01*
X027088Y011632D01*
X027227Y011689D01*
X027334Y011796D01*
X027391Y011934D01*
X027391Y012085D01*
X027334Y012224D01*
X027227Y012330D01*
X027354Y012175D02*
X028711Y012175D01*
X028711Y012016D02*
X027391Y012016D01*
X027359Y011858D02*
X028037Y011858D01*
X027878Y011699D02*
X027237Y011699D01*
X026789Y011699D02*
X024186Y011699D01*
X024202Y011738D02*
X024145Y011599D01*
X024038Y011492D01*
X023899Y011435D01*
X023749Y011435D01*
X023610Y011492D01*
X023504Y011599D01*
X023446Y011738D01*
X023446Y011888D01*
X023504Y012027D01*
X023610Y012133D01*
X023749Y012191D01*
X023899Y012191D01*
X024038Y012133D01*
X024145Y012027D01*
X024202Y011888D01*
X024202Y011738D01*
X024202Y011858D02*
X026667Y011858D01*
X026635Y012016D02*
X024149Y012016D01*
X023939Y012175D02*
X026672Y012175D01*
X026806Y012333D02*
X023158Y012333D01*
X023158Y012175D02*
X023710Y012175D01*
X023499Y012016D02*
X023158Y012016D01*
X023158Y011858D02*
X023446Y011858D01*
X023462Y011699D02*
X023158Y011699D01*
X023158Y011541D02*
X023562Y011541D01*
X023158Y011382D02*
X027561Y011382D01*
X027720Y011541D02*
X024087Y011541D01*
X023158Y011224D02*
X027472Y011224D01*
X026873Y011065D02*
X023158Y011065D01*
X023158Y010907D02*
X026849Y010907D01*
X026866Y010748D02*
X026053Y010748D01*
X026074Y010728D02*
X025968Y010834D01*
X025829Y010892D01*
X025678Y010892D01*
X025539Y010834D01*
X025433Y010728D01*
X025375Y010589D01*
X025375Y010438D01*
X025433Y010299D01*
X025539Y010193D01*
X025678Y010136D01*
X025829Y010136D01*
X025968Y010193D01*
X026074Y010299D01*
X026131Y010438D01*
X026131Y010589D01*
X026074Y010728D01*
X026131Y010590D02*
X026866Y010590D01*
X026849Y010431D02*
X026128Y010431D01*
X026047Y010273D02*
X026849Y010273D01*
X026849Y010114D02*
X023158Y010114D01*
X023158Y009956D02*
X026896Y009956D01*
X027063Y009797D02*
X023158Y009797D01*
X023158Y009639D02*
X027063Y009639D01*
X027483Y009639D02*
X028204Y009639D01*
X028204Y009502D02*
X028255Y009451D01*
X028204Y009399D01*
X028204Y009379D01*
X028141Y009317D01*
X028136Y009319D01*
X027985Y009319D01*
X027845Y009261D01*
X027738Y009154D01*
X027680Y009014D01*
X027680Y008863D01*
X027738Y008724D01*
X027845Y008617D01*
X027905Y008592D01*
X027537Y008224D01*
X027513Y008248D01*
X027595Y008330D01*
X027653Y008470D01*
X027653Y008621D01*
X027595Y008760D01*
X027488Y008867D01*
X027483Y008869D01*
X027483Y009893D01*
X027497Y009889D01*
X027659Y009889D01*
X027820Y009889D01*
X027866Y009901D01*
X027907Y009925D01*
X027941Y009958D01*
X027964Y009999D01*
X027977Y010045D01*
X027977Y010246D01*
X027977Y010447D01*
X027964Y010493D01*
X027941Y010534D01*
X027915Y010559D01*
X027980Y010625D01*
X027980Y010697D01*
X028517Y010697D01*
X028515Y010695D01*
X028491Y010654D01*
X028479Y010608D01*
X028479Y010496D01*
X028747Y010496D01*
X028747Y010496D01*
X028479Y010496D01*
X028479Y010384D01*
X028491Y010338D01*
X028502Y010319D01*
X028499Y010316D01*
X028499Y010254D01*
X028481Y010243D01*
X028454Y010243D01*
X028409Y010199D01*
X028356Y010166D01*
X028350Y010140D01*
X028331Y010120D01*
X028331Y010058D01*
X028318Y010004D01*
X028297Y010004D01*
X028204Y009911D01*
X028204Y009502D01*
X028226Y009480D02*
X027483Y009480D01*
X027483Y009322D02*
X028146Y009322D01*
X027747Y009163D02*
X027483Y009163D01*
X027483Y009005D02*
X027680Y009005D01*
X027687Y008846D02*
X027509Y008846D01*
X027625Y008688D02*
X027774Y008688D01*
X027842Y008529D02*
X027653Y008529D01*
X027684Y008371D02*
X027612Y008371D01*
X028031Y008124D02*
X028242Y008335D01*
X029131Y008335D01*
X029383Y008335D01*
X029827Y007993D01*
X029857Y007963D01*
X029787Y007893D01*
X029730Y007754D01*
X029730Y007624D01*
X029684Y007583D01*
X029647Y007583D01*
X029641Y007593D01*
X029608Y007626D01*
X029598Y007632D01*
X029598Y007903D01*
X029505Y007996D01*
X029128Y007996D01*
X029114Y008004D01*
X029068Y008016D01*
X028986Y008016D01*
X028986Y007925D01*
X028986Y007925D01*
X028986Y007925D01*
X028986Y008016D01*
X028903Y008016D01*
X028857Y008004D01*
X028844Y007996D01*
X028467Y007996D01*
X028452Y007982D01*
X028354Y008080D01*
X028215Y008138D01*
X028064Y008138D01*
X028031Y008124D01*
X028119Y008212D02*
X029542Y008212D01*
X029749Y008054D02*
X028381Y008054D01*
X029598Y007895D02*
X029789Y007895D01*
X029730Y007737D02*
X029598Y007737D01*
X030352Y008361D02*
X030598Y008115D01*
X030605Y008142D01*
X030629Y008183D01*
X030662Y008217D01*
X030704Y008240D01*
X030749Y008253D01*
X030950Y008253D01*
X030950Y007935D01*
X030950Y007935D01*
X030950Y008253D01*
X031151Y008253D01*
X031197Y008240D01*
X031223Y008225D01*
X031234Y008237D01*
X031268Y008237D01*
X031268Y008545D01*
X031264Y009949D01*
X030099Y009949D01*
X029745Y010304D01*
X029622Y010427D01*
X029622Y010697D01*
X029509Y010697D01*
X029512Y010695D01*
X029535Y010654D01*
X029548Y010608D01*
X029548Y010496D01*
X029279Y010496D01*
X029279Y010496D01*
X029548Y010496D01*
X029548Y010384D01*
X029535Y010338D01*
X029524Y010319D01*
X029528Y010316D01*
X029528Y010249D01*
X029572Y010220D01*
X029596Y010220D01*
X029643Y010173D01*
X029697Y010137D01*
X029702Y010114D01*
X029934Y010114D01*
X029801Y009956D02*
X030093Y009956D01*
X029846Y009911D02*
X029753Y010004D01*
X029725Y010004D01*
X029719Y010031D01*
X029719Y010097D01*
X029702Y010114D01*
X029776Y010273D02*
X029528Y010273D01*
X029548Y010431D02*
X029622Y010431D01*
X029622Y010590D02*
X029548Y010590D01*
X029279Y010496D02*
X029279Y010496D01*
X029272Y010496D01*
X029013Y010496D01*
X029013Y010496D01*
X028747Y010496D01*
X028747Y010496D01*
X028754Y010496D01*
X029013Y010496D01*
X029013Y010496D01*
X029279Y010496D01*
X030053Y010590D02*
X034047Y010590D01*
X034047Y010748D02*
X030042Y010748D01*
X030495Y010907D02*
X030527Y010907D01*
X030781Y010907D02*
X030781Y010907D01*
X030781Y011065D02*
X030781Y011065D01*
X030781Y011224D02*
X030781Y011224D01*
X031099Y011224D02*
X034047Y011224D01*
X034047Y011065D02*
X031099Y011065D01*
X031035Y010907D02*
X034047Y010907D01*
X034047Y010431D02*
X030211Y010431D01*
X031658Y010273D02*
X034047Y010273D01*
X034047Y010114D02*
X032987Y010114D01*
X033003Y010098D02*
X032897Y010204D01*
X032758Y010262D01*
X032607Y010262D01*
X032468Y010204D01*
X032362Y010098D01*
X032304Y009959D01*
X032304Y009809D01*
X032362Y009670D01*
X032468Y009563D01*
X032607Y009506D01*
X032758Y009506D01*
X032897Y009563D01*
X033003Y009670D01*
X033061Y009809D01*
X033061Y009959D01*
X033003Y010098D01*
X033061Y009956D02*
X034047Y009956D01*
X034047Y009797D02*
X033056Y009797D01*
X032972Y009639D02*
X034047Y009639D01*
X034047Y009480D02*
X031685Y009480D01*
X031686Y009322D02*
X032943Y009322D01*
X032932Y009163D02*
X031686Y009163D01*
X031687Y009005D02*
X032932Y009005D01*
X032936Y008846D02*
X032678Y008846D01*
X032681Y008688D02*
X032928Y008688D01*
X032928Y008616D02*
X033245Y008616D01*
X032928Y008616D01*
X032928Y008529D02*
X032681Y008529D01*
X032364Y008688D02*
X032364Y008688D01*
X032364Y008846D02*
X032364Y008846D01*
X033245Y008616D02*
X033245Y008616D01*
X033249Y009163D02*
X033249Y009163D01*
X033249Y009322D02*
X033249Y009322D01*
X032393Y009639D02*
X031685Y009639D01*
X031685Y009797D02*
X032309Y009797D01*
X032304Y009956D02*
X031684Y009956D01*
X031684Y010114D02*
X032378Y010114D01*
X031684Y010247D02*
X031684Y010247D01*
X031265Y009797D02*
X029846Y009797D01*
X029846Y009911D02*
X029846Y009502D01*
X029795Y009451D01*
X029840Y009405D01*
X029960Y009405D01*
X030012Y009456D01*
X030151Y009514D01*
X030301Y009514D01*
X030440Y009456D01*
X030546Y009350D01*
X030604Y009211D01*
X030604Y009060D01*
X030546Y008922D01*
X030440Y008815D01*
X030301Y008758D01*
X030250Y008758D01*
X030250Y008627D01*
X030192Y008488D01*
X030086Y008382D01*
X030037Y008362D01*
X030037Y008361D01*
X030352Y008361D01*
X030501Y008212D02*
X030658Y008212D01*
X030950Y008212D02*
X030950Y008212D01*
X030950Y008054D02*
X030950Y008054D01*
X031268Y008371D02*
X030058Y008371D01*
X030209Y008529D02*
X031268Y008529D01*
X031267Y008688D02*
X030250Y008688D01*
X030471Y008846D02*
X031267Y008846D01*
X031267Y009005D02*
X030581Y009005D01*
X030604Y009163D02*
X031266Y009163D01*
X031266Y009322D02*
X030558Y009322D01*
X030382Y009480D02*
X031265Y009480D01*
X031265Y009639D02*
X029846Y009639D01*
X029824Y009480D02*
X030070Y009480D01*
X028249Y009956D02*
X027938Y009956D01*
X027977Y010114D02*
X028331Y010114D01*
X028499Y010273D02*
X027977Y010273D01*
X027977Y010246D02*
X027659Y010246D01*
X027659Y010246D01*
X027977Y010246D01*
X027977Y010431D02*
X028479Y010431D01*
X028479Y010590D02*
X027945Y010590D01*
X027659Y010246D02*
X027659Y009889D01*
X027659Y010246D01*
X027659Y010246D01*
X027659Y010114D02*
X027659Y010114D01*
X027659Y009956D02*
X027659Y009956D01*
X027483Y009797D02*
X028204Y009797D01*
X027063Y009480D02*
X023158Y009480D01*
X023158Y009322D02*
X027063Y009322D01*
X027063Y009163D02*
X023158Y009163D01*
X023158Y009005D02*
X023565Y009005D01*
X023534Y008974D02*
X023534Y008132D01*
X023628Y008039D01*
X024509Y008039D01*
X024602Y008132D01*
X024602Y008974D01*
X024509Y009067D01*
X023628Y009067D01*
X023534Y008974D01*
X023534Y008846D02*
X023158Y008846D01*
X023158Y008688D02*
X023534Y008688D01*
X023534Y008529D02*
X023158Y008529D01*
X023158Y008371D02*
X023534Y008371D01*
X023534Y008212D02*
X023158Y008212D01*
X023158Y008054D02*
X023613Y008054D01*
X023628Y008012D02*
X023534Y007919D01*
X023534Y007038D01*
X023594Y006978D01*
X023534Y006919D01*
X023534Y006038D01*
X023628Y005944D01*
X024509Y005944D01*
X024602Y006038D01*
X024602Y006919D01*
X024543Y006978D01*
X024602Y007038D01*
X024602Y007919D01*
X024509Y008012D01*
X023628Y008012D01*
X023534Y007895D02*
X023158Y007895D01*
X023158Y007737D02*
X023534Y007737D01*
X023534Y007578D02*
X023158Y007578D01*
X023158Y007420D02*
X023534Y007420D01*
X023534Y007261D02*
X023158Y007261D01*
X023158Y007103D02*
X023534Y007103D01*
X023560Y006944D02*
X023158Y006944D01*
X023158Y006786D02*
X023534Y006786D01*
X023534Y006627D02*
X023158Y006627D01*
X023158Y006469D02*
X023534Y006469D01*
X023534Y006310D02*
X023158Y006310D01*
X023158Y006152D02*
X023534Y006152D01*
X023579Y005993D02*
X023158Y005993D01*
X023158Y005835D02*
X023545Y005835D01*
X023534Y005676D02*
X023158Y005676D01*
X023158Y005518D02*
X023534Y005518D01*
X023534Y005359D02*
X023158Y005359D01*
X023158Y005201D02*
X023534Y005201D01*
X024602Y005518D02*
X031015Y005518D01*
X031015Y005676D02*
X030253Y005676D01*
X030438Y005835D02*
X031015Y005835D01*
X031824Y005676D02*
X031824Y005676D01*
X031824Y005518D02*
X031824Y005518D01*
X031972Y005359D02*
X032030Y005220D01*
X032496Y005083D02*
X032567Y005113D01*
X032674Y005220D01*
X032676Y005225D01*
X033478Y005225D01*
X033636Y005382D01*
X033746Y005493D01*
X033810Y005493D01*
X033810Y005953D01*
X033810Y005953D01*
X033810Y005493D01*
X033919Y005493D01*
X033965Y005505D01*
X034006Y005529D01*
X034040Y005562D01*
X034063Y005603D01*
X034075Y005649D01*
X034075Y005953D01*
X034075Y006249D01*
X034423Y006249D01*
X034659Y006485D01*
X034677Y006503D01*
X034677Y006349D01*
X034362Y006034D01*
X034362Y005884D01*
X034314Y005836D01*
X034314Y005113D01*
X034343Y005083D01*
X032496Y005083D01*
X032655Y005201D02*
X034314Y005201D01*
X034314Y005359D02*
X033612Y005359D01*
X033810Y005518D02*
X033810Y005518D01*
X033810Y005676D02*
X033810Y005676D01*
X033810Y005835D02*
X033810Y005835D01*
X033811Y005953D02*
X033811Y005953D01*
X034075Y005953D01*
X033811Y005953D01*
X034075Y005993D02*
X034362Y005993D01*
X034480Y006152D02*
X034075Y006152D01*
X034485Y006310D02*
X034639Y006310D01*
X034643Y006469D02*
X034677Y006469D01*
X034314Y005835D02*
X034075Y005835D01*
X034075Y005676D02*
X034314Y005676D01*
X034314Y005518D02*
X033987Y005518D01*
X029963Y005676D02*
X027792Y005676D01*
X027858Y005835D02*
X029777Y005835D01*
X029730Y005993D02*
X029554Y005993D01*
X029598Y006152D02*
X029751Y006152D01*
X029858Y006310D02*
X029601Y006310D01*
X028418Y005993D02*
X027865Y005993D01*
X028023Y006152D02*
X028373Y006152D01*
X028371Y006310D02*
X028182Y006310D01*
X027049Y005986D02*
X027049Y005629D01*
X027049Y005986D01*
X027049Y005986D01*
X026731Y005986D01*
X027049Y005986D01*
X027049Y005986D01*
X026731Y005993D02*
X024558Y005993D01*
X024602Y006152D02*
X026530Y006152D01*
X026351Y006310D02*
X025545Y006310D01*
X025567Y006469D02*
X026304Y006469D01*
X025112Y006466D02*
X024656Y006466D01*
X025112Y006466D01*
X025112Y006466D01*
X025112Y006310D02*
X025112Y006310D01*
X024679Y006310D02*
X024602Y006310D01*
X024602Y006469D02*
X024656Y006469D01*
X024676Y006627D02*
X024602Y006627D01*
X024602Y006786D02*
X024676Y006786D01*
X024676Y006944D02*
X024577Y006944D01*
X024602Y007103D02*
X024676Y007103D01*
X024676Y007261D02*
X024602Y007261D01*
X024602Y007420D02*
X024676Y007420D01*
X024676Y007578D02*
X024602Y007578D01*
X024602Y007737D02*
X025061Y007737D01*
X025084Y007895D02*
X024602Y007895D01*
X024524Y008054D02*
X025094Y008054D01*
X025185Y008212D02*
X024602Y008212D01*
X024602Y008371D02*
X026934Y008371D01*
X026893Y008529D02*
X024602Y008529D01*
X024602Y008688D02*
X026921Y008688D01*
X027037Y008846D02*
X024602Y008846D01*
X024571Y009005D02*
X027063Y009005D01*
X026305Y008212D02*
X025739Y008212D01*
X025830Y008054D02*
X026146Y008054D01*
X025460Y010273D02*
X023158Y010273D01*
X023158Y010431D02*
X025378Y010431D01*
X025376Y010590D02*
X023158Y010590D01*
X023158Y010748D02*
X025453Y010748D01*
X027997Y011224D02*
X029851Y011224D01*
X029971Y011382D02*
X028155Y011382D01*
X029521Y011424D02*
X029521Y011664D01*
X029521Y011424D01*
X029521Y011541D02*
X029521Y011541D01*
X029521Y011664D02*
X029521Y011664D01*
X029521Y011844D01*
X029521Y011844D01*
X029521Y011664D01*
X029521Y011664D01*
X029521Y011699D02*
X029521Y011699D01*
X029805Y011864D02*
X029805Y011864D01*
X029871Y011858D02*
X029963Y011858D01*
X029991Y011699D02*
X029871Y011699D01*
X029860Y011541D02*
X030046Y011541D01*
X030492Y011541D02*
X030530Y011541D01*
X030781Y011541D02*
X030781Y011541D01*
X030773Y011699D02*
X030773Y011699D01*
X030773Y011858D02*
X030773Y011858D01*
X030773Y011970D02*
X030773Y012328D01*
X030773Y011970D01*
X030773Y011970D01*
X030773Y012016D02*
X030773Y012016D01*
X030773Y012175D02*
X030773Y012175D01*
X031090Y012175D02*
X034047Y012175D01*
X034047Y012333D02*
X030436Y012333D01*
X030436Y012492D02*
X034047Y012492D01*
X034047Y012650D02*
X030538Y012650D01*
X030606Y012809D02*
X034047Y012809D01*
X034047Y012967D02*
X030599Y012967D01*
X030513Y013126D02*
X034047Y013126D01*
X032422Y013443D02*
X024202Y013443D01*
X024178Y013601D02*
X032431Y013601D01*
X032520Y013760D02*
X024066Y013760D01*
X023583Y013760D02*
X023158Y013760D01*
X023158Y013918D02*
X034010Y013918D01*
X033999Y013760D02*
X033081Y013760D01*
X034047Y012016D02*
X031091Y012016D01*
X031091Y011858D02*
X034047Y011858D01*
X034047Y011699D02*
X031064Y011699D01*
X031032Y011541D02*
X034047Y011541D01*
X034047Y011382D02*
X031099Y011382D01*
X030781Y011382D02*
X030781Y011382D01*
X023659Y013126D02*
X023158Y013126D01*
X023158Y013284D02*
X023490Y013284D01*
X023446Y013443D02*
X023158Y013443D01*
X023158Y013601D02*
X023471Y013601D01*
X024592Y005835D02*
X026731Y005835D01*
X026789Y005676D02*
X024602Y005676D01*
X027049Y005676D02*
X027049Y005676D01*
X027049Y005835D02*
X027049Y005835D01*
X027308Y005676D02*
X027329Y005676D01*
D27*
X027273Y006577D03*
X028139Y007758D03*
X027273Y008545D03*
X028060Y008939D03*
X030619Y010514D03*
X030226Y012876D03*
X029399Y013585D03*
X033179Y006970D03*
X032470Y006183D03*
X030950Y006840D03*
X032352Y005435D03*
D28*
X032864Y005435D01*
X033391Y005435D01*
X033549Y005592D01*
X033549Y005941D01*
X033560Y005953D01*
X033588Y005980D01*
X033588Y006301D01*
X033785Y006459D01*
X034336Y006459D01*
X034572Y006695D01*
X034572Y008821D01*
X034572Y008939D01*
X034690Y009057D01*
X034769Y009057D01*
X034887Y008939D01*
X034887Y006262D01*
X034572Y005947D01*
X034572Y005474D01*
X033824Y005592D02*
X033824Y005939D01*
X033810Y005953D01*
X033844Y005986D01*
X034360Y005986D01*
X033560Y005953D02*
X033572Y005789D01*
X033300Y005953D02*
X033300Y006266D01*
X033300Y006580D01*
X033324Y006604D01*
X033533Y006813D01*
X033848Y006813D01*
X034257Y007222D01*
X034257Y013545D01*
X030226Y012876D02*
X030226Y012088D01*
X030261Y011970D01*
X030226Y012088D01*
X029438Y012088D01*
X029521Y012064D01*
X029438Y012088D01*
X029045Y012088D01*
X029061Y012064D01*
X029041Y011864D02*
X029521Y011864D01*
X029041Y011664D02*
X029040Y011663D01*
X028139Y011663D01*
X027682Y011207D01*
X027682Y010868D01*
X027667Y010907D01*
X029832Y010907D01*
X030226Y011301D01*
X030269Y011222D01*
X029832Y010907D02*
X029832Y010514D01*
X030186Y010159D01*
X031474Y010159D01*
X031478Y008545D01*
X031604Y008545D01*
X031840Y008545D01*
X032155Y008230D01*
X033139Y008230D01*
X033297Y008073D01*
X033297Y007876D01*
X033300Y007872D01*
X033300Y007673D01*
X033050Y007673D02*
X032982Y007561D01*
X032682Y007939D01*
X032100Y007939D01*
X031478Y007939D02*
X031478Y008545D01*
X031604Y008545D01*
X031801Y008545D01*
X031852Y008632D01*
X031604Y008545D02*
X031478Y008545D01*
X030541Y007876D02*
X030265Y008151D01*
X029966Y008151D01*
X029454Y008545D01*
X029218Y008545D01*
X028155Y008545D01*
X027682Y008073D01*
X027549Y007939D01*
X027549Y007915D01*
X027352Y008112D01*
X027328Y008112D01*
X027289Y008112D01*
X026501Y008112D01*
X026265Y007876D01*
X026249Y007860D01*
X026249Y007191D01*
X026029Y006970D01*
X025344Y006970D01*
X025112Y006978D01*
X025112Y006722D02*
X025765Y006722D01*
X026328Y006722D01*
X026486Y006931D01*
X026486Y007151D01*
X026698Y007364D01*
X027864Y007364D01*
X028116Y007364D01*
X028257Y007364D01*
X028116Y007364D01*
X027997Y007482D01*
X027997Y007679D01*
X028076Y007758D01*
X028139Y007758D01*
X027549Y007718D02*
X027549Y007915D01*
X028982Y007703D02*
X028986Y007699D01*
X028986Y006970D01*
X029714Y006773D02*
X029911Y006773D01*
X030159Y006970D01*
X030950Y006840D02*
X030950Y007423D01*
X031478Y007427D02*
X031478Y007175D01*
X031761Y006892D01*
X032100Y007427D02*
X033050Y006476D01*
X033050Y005953D01*
X032470Y006183D02*
X031801Y006183D01*
X031820Y006238D01*
X031407Y006183D02*
X031308Y006238D01*
X031407Y006183D01*
X030541Y006183D01*
X030541Y007876D01*
X030108Y007679D02*
X029753Y007364D01*
X029714Y007364D01*
X028982Y007703D02*
X028982Y008191D01*
X029753Y008821D02*
X029871Y008703D01*
X029753Y008821D02*
X029415Y008821D01*
X029218Y008821D01*
X029017Y009022D01*
X029017Y009195D01*
X028541Y009195D02*
X028533Y009136D01*
X028541Y009195D02*
X028316Y009195D01*
X028060Y008939D01*
X027273Y008545D02*
X027273Y010120D01*
X027147Y010246D01*
X027076Y010120D01*
X027076Y010907D01*
X027171Y010868D01*
X028541Y010033D02*
X028747Y010161D01*
X028541Y010033D02*
X028541Y009707D01*
X029017Y009707D02*
X029017Y010157D01*
X029013Y010161D01*
X029279Y010161D02*
X029509Y010010D01*
X029509Y009707D01*
X029509Y009195D02*
X030127Y009195D01*
X030226Y009136D01*
X033761Y009077D02*
X033769Y008939D01*
X033769Y008545D01*
X033810Y008504D01*
X033810Y007673D01*
X033560Y007673D02*
X033572Y007561D01*
X033572Y007364D01*
X033179Y006970D01*
X031407Y006183D02*
X031407Y005789D01*
X031312Y005750D01*
X031824Y005750D02*
X031824Y005270D01*
X032013Y005081D01*
X033352Y005081D01*
X033470Y005199D01*
X033470Y005238D01*
X033824Y005592D01*
X030123Y006041D02*
X030108Y006025D01*
X030123Y006041D02*
X030123Y006380D01*
X030084Y006419D01*
X029927Y006577D01*
X029714Y006577D01*
X028257Y006577D02*
X028151Y006577D01*
X027560Y005986D01*
X027470Y005986D01*
X027470Y006380D01*
X027273Y006577D01*
X027785Y006773D02*
X028257Y006773D01*
X028257Y007167D02*
X027997Y007167D01*
X027988Y007168D01*
X026870Y007168D01*
X026856Y007168D01*
X026698Y007010D01*
X026698Y006514D01*
X026682Y006498D01*
X025871Y007419D02*
X025686Y007234D01*
X025112Y007234D01*
X025123Y007246D01*
X025112Y007490D02*
X025462Y007840D01*
X025462Y007955D01*
X025871Y007569D02*
X025871Y007419D01*
X033757Y008616D02*
X033769Y008545D01*
X029272Y010496D02*
X029242Y010435D01*
D29*
X030596Y009648D03*
X030226Y009136D03*
X029871Y008703D03*
X028982Y008191D03*
X030108Y007679D03*
X030159Y006970D03*
X031761Y006892D03*
X033848Y006813D03*
X030108Y006025D03*
X027785Y006773D03*
X026682Y006498D03*
X025871Y007569D03*
X025462Y007955D03*
X027549Y007718D03*
X032682Y009884D03*
X027013Y012010D03*
X023824Y011813D03*
X025753Y010514D03*
X023824Y013466D03*
X032801Y013506D03*
X024848Y005317D03*
M02*
